HIERARCHY
ROOT Hips
{
	OFFSET 0.000000 97.167313 0.000000
	CHANNELS 6 Xposition Yposition Zposition Xrotation Yrotation Zrotation
	JOINT Spine
	{
		OFFSET 0.000000 13.784798 0.064400
		CHANNELS 3 Xrotation Yrotation Zrotation
		JOINT Spine1
		{
			OFFSET 0.000000 12.037903 0.404700
			CHANNELS 3 Xrotation Yrotation Zrotation
			JOINT Spine2
			{
				OFFSET 0.000000 17.795601 0.420200
				CHANNELS 3 Xrotation Yrotation Zrotation
				JOINT Neck
				{
					OFFSET 0.000000 39.131302 11.954600
					CHANNELS 3 Xrotation Yrotation Zrotation
					JOINT Head
					{
						OFFSET 0.000000 14.456192 15.627699
						CHANNELS 3 Xrotation Yrotation Zrotation
						JOINT HeadTop_End
						{
							OFFSET 0.000000 15.703506 7.603401
							CHANNELS 3 Xrotation Yrotation Zrotation
							End Site
							{
								OFFSET 0.000000 17.447403 0.000000
							}
						}
					}
				}
				JOINT LeftShoulder
				{
					OFFSET 17.399500 24.608795 1.168800
					CHANNELS 3 Xrotation Yrotation Zrotation
					JOINT LeftArm
					{
						OFFSET 18.980635 5.765305 1.818600
						CHANNELS 3 Xrotation Yrotation Zrotation
						JOINT LeftForeArm
						{
							OFFSET 49.290169 0.000000 0.000000
							CHANNELS 3 Xrotation Yrotation Zrotation
							JOINT LeftHand
							{
								OFFSET 31.562012 0.000000 0.000000
								CHANNELS 3 Xrotation Yrotation Zrotation
								JOINT LeftHandThumb1
								{
									OFFSET 6.133995 -4.388519 7.076070
									CHANNELS 3 Xrotation Yrotation Zrotation
									JOINT LeftHandThumb2
									{
										OFFSET 6.037666 -3.485840 3.485847
										CHANNELS 3 Xrotation Yrotation Zrotation
										JOINT LeftHandThumb3
										{
											OFFSET 6.496506 -3.750763 3.750761
											CHANNELS 3 Xrotation Yrotation Zrotation
											JOINT LeftHandThumb4
											{
												OFFSET 5.616882 -3.242905 3.242910
												CHANNELS 3 Xrotation Yrotation Zrotation
												End Site
												{
													OFFSET -1.254608 7.132141 0.375429
												}
											}
										}
									}
								}
								JOINT LeftHandPinky1
								{
									OFFSET 18.920792 -0.453171 -11.426712
									CHANNELS 3 Xrotation Yrotation Zrotation
									JOINT LeftHandPinky2
									{
										OFFSET 4.919586 0.000000 0.000000
										CHANNELS 3 Xrotation Yrotation Zrotation
										JOINT LeftHandPinky3
										{
											OFFSET 5.233047 0.000000 0.000000
											CHANNELS 3 Xrotation Yrotation Zrotation
											JOINT LeftHandPinky4
											{
												OFFSET 5.571716 0.000000 0.000000
												CHANNELS 3 Xrotation Yrotation Zrotation
												End Site
												{
													OFFSET -3.459808 4.342407 -0.466164
												}
											}
										}
									}
								}
								JOINT LeftHandRing1
								{
									OFFSET 22.726120 -0.094986 -6.500475
									CHANNELS 3 Xrotation Yrotation Zrotation
									JOINT LeftHandRing2
									{
										OFFSET 6.408615 0.000000 0.000000
										CHANNELS 3 Xrotation Yrotation Zrotation
										JOINT LeftHandRing3
										{
											OFFSET 6.150223 0.000000 0.000000
											CHANNELS 3 Xrotation Yrotation Zrotation
											JOINT LeftHandRing4
											{
												OFFSET 6.145386 0.000000 0.000000
												CHANNELS 3 Xrotation Yrotation Zrotation
												End Site
												{
													OFFSET -3.671402 4.923981 -0.202372
												}
											}
										}
									}
								}
								JOINT LeftHandMiddle1
								{
									OFFSET 23.373947 0.000000 0.000001
									CHANNELS 3 Xrotation Yrotation Zrotation
									JOINT LeftHandMiddle2
									{
										OFFSET 6.996567 0.000000 0.000000
										CHANNELS 3 Xrotation Yrotation Zrotation
										JOINT LeftHandMiddle3
										{
											OFFSET 7.015945 0.000000 0.000000
											CHANNELS 3 Xrotation Yrotation Zrotation
											JOINT LeftHandMiddle4
											{
												OFFSET 7.721573 0.000000 0.000000
												CHANNELS 3 Xrotation Yrotation Zrotation
												End Site
												{
													OFFSET -4.651108 6.158463 0.251582
												}
											}
										}
									}
								}
								JOINT LeftHandIndex1
								{
									OFFSET 21.310577 -0.490082 6.209344
									CHANNELS 3 Xrotation Yrotation Zrotation
									JOINT LeftHandIndex2
									{
										OFFSET 7.536453 0.000000 0.000000
										CHANNELS 3 Xrotation Yrotation Zrotation
										JOINT LeftHandIndex3
										{
											OFFSET 7.512344 0.000000 0.000000
											CHANNELS 3 Xrotation Yrotation Zrotation
											JOINT LeftHandIndex4
											{
												OFFSET 10.212402 0.000000 0.000001
												CHANNELS 3 Xrotation Yrotation Zrotation
												End Site
												{
													OFFSET -5.180801 8.690506 1.388433
												}
											}
										}
									}
								}
							}
						}
					}
				}
				JOINT RightShoulder
				{
					OFFSET -17.399500 24.608795 1.168800
					CHANNELS 3 Xrotation Yrotation Zrotation
					JOINT RightArm
					{
						OFFSET -18.980635 5.765305 1.818600
						CHANNELS 3 Xrotation Yrotation Zrotation
						JOINT RightForeArm
						{
							OFFSET -49.290169 0.000000 0.000000
							CHANNELS 3 Xrotation Yrotation Zrotation
							JOINT RightHand
							{
								OFFSET -31.562012 0.000000 0.000000
								CHANNELS 3 Xrotation Yrotation Zrotation
								JOINT RightHandThumb1
								{
									OFFSET -6.133995 -4.388519 7.076070
									CHANNELS 3 Xrotation Yrotation Zrotation
									JOINT RightHandThumb2
									{
										OFFSET -6.037666 -3.485840 3.485847
										CHANNELS 3 Xrotation Yrotation Zrotation
										JOINT RightHandThumb3
										{
											OFFSET -6.496506 -3.750763 3.750761
											CHANNELS 3 Xrotation Yrotation Zrotation
											JOINT RightHandThumb4
											{
												OFFSET -5.616882 -3.242905 3.242910
												CHANNELS 3 Xrotation Yrotation Zrotation
												End Site
												{
													OFFSET 1.254608 7.132141 0.375429
												}
											}
										}
									}
								}
								JOINT RightHandIndex1
								{
									OFFSET -21.310577 -0.490082 6.209344
									CHANNELS 3 Xrotation Yrotation Zrotation
									JOINT RightHandIndex2
									{
										OFFSET -7.536453 0.000000 0.000000
										CHANNELS 3 Xrotation Yrotation Zrotation
										JOINT RightHandIndex3
										{
											OFFSET -7.512344 0.000000 0.000000
											CHANNELS 3 Xrotation Yrotation Zrotation
											JOINT RightHandIndex4
											{
												OFFSET -10.212402 0.000000 0.000001
												CHANNELS 3 Xrotation Yrotation Zrotation
												End Site
												{
													OFFSET 5.180801 8.690506 1.388433
												}
											}
										}
									}
								}
								JOINT RightHandMiddle1
								{
									OFFSET -23.373947 0.000000 0.000001
									CHANNELS 3 Xrotation Yrotation Zrotation
									JOINT RightHandMiddle2
									{
										OFFSET -6.996567 0.000000 0.000000
										CHANNELS 3 Xrotation Yrotation Zrotation
										JOINT RightHandMiddle3
										{
											OFFSET -7.015945 0.000000 0.000000
											CHANNELS 3 Xrotation Yrotation Zrotation
											JOINT RightHandMiddle4
											{
												OFFSET -7.721573 0.000000 0.000000
												CHANNELS 3 Xrotation Yrotation Zrotation
												End Site
												{
													OFFSET 4.651108 6.158463 0.251582
												}
											}
										}
									}
								}
								JOINT RightHandRing1
								{
									OFFSET -22.726120 -0.094986 -6.500475
									CHANNELS 3 Xrotation Yrotation Zrotation
									JOINT RightHandRing2
									{
										OFFSET -6.408615 0.000000 0.000000
										CHANNELS 3 Xrotation Yrotation Zrotation
										JOINT RightHandRing3
										{
											OFFSET -6.150223 0.000000 0.000000
											CHANNELS 3 Xrotation Yrotation Zrotation
											JOINT RightHandRing4
											{
												OFFSET -6.145386 0.000000 0.000000
												CHANNELS 3 Xrotation Yrotation Zrotation
												End Site
												{
													OFFSET 3.671402 4.923981 -0.202372
												}
											}
										}
									}
								}
								JOINT RightHandPinky1
								{
									OFFSET -18.920792 -0.453171 -11.426712
									CHANNELS 3 Xrotation Yrotation Zrotation
									JOINT RightHandPinky2
									{
										OFFSET -4.919586 0.000000 0.000000
										CHANNELS 3 Xrotation Yrotation Zrotation
										JOINT RightHandPinky3
										{
											OFFSET -5.233047 0.000000 0.000000
											CHANNELS 3 Xrotation Yrotation Zrotation
											JOINT RightHandPinky4
											{
												OFFSET -5.571716 0.000000 0.000000
												CHANNELS 3 Xrotation Yrotation Zrotation
												End Site
												{
													OFFSET 3.459808 4.342407 -0.466164
												}
											}
										}
									}
								}
							}
						}
					}
				}
			}
		}
	}
	JOINT LeftUpLeg
	{
		OFFSET 19.899099 -7.885101 -3.429500
		CHANNELS 3 Xrotation Yrotation Zrotation
		JOINT LeftLeg
		{
			OFFSET 1.745560 -36.997807 10.304700
			CHANNELS 3 Xrotation Yrotation Zrotation
			JOINT LeftFoot
			{
				OFFSET -1.745558 -29.803308 -13.615400
				CHANNELS 3 Xrotation Yrotation Zrotation
				JOINT LeftToeBase
				{
					OFFSET 1.181900 -18.539904 15.226099
					CHANNELS 3 Xrotation Yrotation Zrotation
					JOINT LeftToe_End
					{
						OFFSET -0.863701 1.402801 16.534700
						CHANNELS 3 Xrotation Yrotation Zrotation
						End Site
						{
							OFFSET 0.000000 16.616566 0.000000
						}
					}
				}
			}
		}
	}
	JOINT RightUpLeg
	{
		OFFSET -19.899099 -7.885101 -3.429500
		CHANNELS 3 Xrotation Yrotation Zrotation
		JOINT RightLeg
		{
			OFFSET -1.745560 -36.997807 10.304700
			CHANNELS 3 Xrotation Yrotation Zrotation
			JOINT RightFoot
			{
				OFFSET 1.745558 -29.803308 -13.615400
				CHANNELS 3 Xrotation Yrotation Zrotation
				JOINT RightToeBase
				{
					OFFSET -1.181900 -18.539904 15.226099
					CHANNELS 3 Xrotation Yrotation Zrotation
					JOINT RightToe_End
					{
						OFFSET 0.863701 1.402801 16.534700
						CHANNELS 3 Xrotation Yrotation Zrotation
						End Site
						{
							OFFSET 0.000000 16.616566 0.000000
						}
					}
				}
			}
		}
	}
}
MOTION
Frames: 6
Frame Time: 0.033333
-0.376465 91.639305 3.972813 1.146667 -11.390055 -0.984708 7.010814 2.000248 0.442204 1.353430 4.116329 1.074479 -10.519150 3.718165 1.954838 9.516388 1.782676 -7.494056 4.974173 -0.857675 8.778899 -0.000000 0.000000 -0.000000 -1.022541 3.117324 -5.705117 4.403386 9.423682 -72.688021 7.804918 -17.648457 0.304411 1.731365 0.264140 -8.772055 8.265295 -7.734429 18.880840 5.407344 20.572694 -9.835127 1.742520 3.611567 -0.678888 0.000000 0.000001 -0.000002 0.520895 -1.004151 -30.302151 -0.129360 -1.252165 -23.634531 -0.559354 -1.117108 -22.736510 0.000000 0.000000 -0.000006 0.086034 -2.241482 -27.820527 -0.395883 -1.557117 -30.823991 -0.226371 -1.458219 -27.768161 0.000001 0.000000 -0.000000 0.088760 -2.342839 -21.763378 -0.284062 -1.313121 -26.764901 -0.295078 -1.361162 -27.776397 -0.000002 -0.000001 0.000006 0.223775 -4.564198 -10.250308 0.010568 -1.051020 -23.787817 -0.070131 -0.652397 -14.410401 -0.000000 0.000001 -0.000001 -1.175763 -0.294749 3.060856 7.483092 -2.059781 67.808240 1.462554 22.304097 0.606981 4.322164 3.929397 1.814099 8.265304 7.734440 -18.880847 5.407320 -20.572689 9.835206 1.742522 -3.611588 0.678881 0.000000 -0.000001 -0.000001 0.242981 4.561065 10.325072 0.009236 1.055623 23.862266 -0.070037 0.637573 14.485633 -0.000003 0.000000 0.000004 0.150928 2.278724 20.385391 -0.252745 1.227386 25.391460 -0.249745 1.283053 26.402602 -0.000000 0.000000 -0.000008 0.112828 2.170707 27.059195 -0.367323 1.505755 30.052491 -0.199655 1.404742 26.992752 -0.000001 0.000001 -0.000003 0.541475 0.943116 29.442835 -0.091756 1.198423 22.774405 -0.540994 1.063736 21.874429 -0.000001 -0.000002 -0.000001 -13.390389 12.740375 16.681134 17.750121 1.999785 0.641693 -3.638760 7.276225 -13.403569 -3.073058 -2.449509 -2.374887 0.000000 0.000000 0.000000 -4.114845 -9.055140 -9.617503 15.398617 -3.657155 -0.330263 -11.097224 -2.227175 11.412567 -5.807214 2.221958 2.442323 -0.000000 -0.000003 0.000000 
-0.354451 91.492378 3.897411 1.207551 -11.430891 -0.973289 7.217015 1.997737 0.436107 1.473009 4.114211 1.054502 -10.398980 3.718757 1.932244 8.457358 1.831996 -7.586984 5.220638 -0.819554 8.861405 -0.000000 -0.000000 -0.000000 -1.048347 3.020979 -5.695033 4.169214 9.413772 -72.323616 7.877685 -17.681528 0.169176 1.782660 0.095367 -9.309331 8.265292 -7.734432 18.880835 5.407343 20.572692 -9.835129 1.742521 3.611568 -0.678885 0.000000 -0.000000 -0.000002 0.519758 -1.006598 -30.365539 -0.130642 -1.254669 -23.697915 -0.560464 -1.119262 -22.799916 0.000002 -0.000001 -0.000002 0.084066 -2.245476 -27.921665 -0.398078 -1.560762 -30.925126 -0.228591 -1.461900 -27.869277 -0.000001 0.000001 0.000005 0.086432 -2.346325 -21.858943 -0.285957 -1.317101 -26.860436 -0.297222 -1.364608 -27.871915 0.000000 0.000002 0.000009 0.222858 -4.566783 -10.315472 0.009534 -1.053544 -23.852969 -0.070769 -0.655216 -14.475515 0.000001 -0.000002 -0.000001 -1.199353 -0.132586 3.014437 7.216868 -1.254028 68.120755 0.949456 22.212190 0.054713 4.218023 3.941480 1.884641 8.265308 7.734446 -18.880858 5.407319 -20.572683 9.835204 1.742521 -3.611587 0.678891 -0.000000 0.000000 -0.000001 0.242977 4.560982 10.320741 0.009331 1.055631 23.857856 -0.070041 0.637536 14.481280 -0.000001 -0.000001 -0.000002 0.150911 2.278663 20.379493 -0.252806 1.227313 25.385580 -0.249763 1.282971 26.396642 -0.000003 0.000001 -0.000008 0.112916 2.170619 27.052093 -0.367376 1.505848 30.045353 -0.199704 1.404601 26.985673 0.000001 0.000001 -0.000003 0.541495 0.943122 29.439608 -0.091715 1.198607 22.771139 -0.541140 1.063796 21.871181 0.000003 -0.000003 -0.000000 -13.716849 12.678164 16.753303 18.245503 2.009600 0.632105 -3.874867 7.297646 -13.409289 -3.053834 -2.431963 -2.385381 -0.000000 -0.000001 -0.000000 -4.490983 -8.960287 -9.651457 15.931657 -3.631600 -0.374022 -11.310416 -2.271536 11.452104 -5.797096 2.231024 2.473568 -0.000000 0.000001 0.000000 
-0.332495 91.350533 3.832682 1.274393 -11.488032 -0.969621 7.435883 1.995373 0.431761 1.588204 4.110416 1.025888 -10.284247 3.719225 1.901160 7.270973 1.864408 -7.638946 5.513779 -0.774306 8.898772 0.000001 0.000000 -0.000000 -1.058243 2.887572 -5.652767 3.874803 9.292233 -71.986847 8.157548 -17.624627 0.110493 1.567995 -0.179449 -9.786946 8.265294 -7.734431 18.880839 5.407346 20.572692 -9.835129 1.742520 3.611568 -0.678884 -0.000000 0.000001 -0.000004 0.518830 -1.008619 -30.416567 -0.131725 -1.256700 -23.748933 -0.561369 -1.121012 -22.850970 0.000003 0.000001 0.000001 0.082489 -2.248749 -28.003043 -0.399911 -1.563661 -31.006494 -0.230403 -1.464888 -27.950683 0.000000 0.000000 0.000003 0.084460 -2.349137 -21.935854 -0.287512 -1.320358 -26.937335 -0.298994 -1.367360 -27.948775 0.000000 -0.000001 0.000002 0.222042 -4.568858 -10.367923 0.008715 -1.055575 -23.905333 -0.071269 -0.657508 -14.527925 -0.000000 0.000001 -0.000001 -1.212659 -0.017681 2.988894 6.819326 -0.439807 68.399167 0.187015 21.912555 -0.338412 4.296359 3.943816 1.793332 8.265305 7.734438 -18.880852 5.407320 -20.572685 9.835207 1.742523 -3.611588 0.678894 0.000000 -0.000001 -0.000000 0.243409 4.558709 10.258821 0.010268 1.053553 23.795974 -0.069411 0.635284 14.419421 0.000001 -0.000003 -0.000002 0.151908 2.275938 20.302597 -0.251657 1.224718 25.308721 -0.248596 1.280398 26.319794 -0.000000 0.000000 -0.000006 0.114452 2.167656 26.963907 -0.365776 1.503073 29.957182 -0.198313 1.401548 26.897457 -0.000002 0.000000 -0.000005 0.542407 0.941587 29.388549 -0.091001 1.197061 22.720088 -0.540710 1.062429 21.820110 0.000001 -0.000004 -0.000002 -14.015254 12.562020 16.822580 18.729856 2.060802 0.633257 -4.115300 7.340321 -13.439990 -3.052435 -2.431161 -2.385788 0.000000 0.000001 -0.000000 -4.861388 -8.851235 -9.646857 16.433859 -3.621961 -0.478672 -11.504987 -2.304357 11.527336 -5.761584 2.208600 2.556954 -0.000000 -0.000001 0.000000 
-0.311374 91.210541 3.771127 1.355953 -11.555171 -0.963566 7.646377 1.991637 0.425120 1.702949 4.105025 0.988977 -10.169412 3.705045 1.860606 6.048670 1.902745 -7.643859 5.793189 -0.736288 8.886525 0.000001 0.000000 -0.000000 -1.052757 2.696171 -5.517537 3.554184 9.103993 -71.767304 8.392016 -17.536092 0.095189 1.304202 -0.509019 -10.200729 8.265291 -7.734432 18.880834 5.407340 20.572695 -9.835124 1.742521 3.611568 -0.678883 -0.000001 0.000002 -0.000004 0.518120 -1.010236 -30.456397 -0.132583 -1.258312 -23.788770 -0.562147 -1.122382 -22.890843 -0.000000 0.000000 -0.000006 0.081273 -2.251325 -28.066639 -0.401370 -1.565987 -31.070117 -0.231868 -1.467206 -28.014262 -0.000001 0.000000 0.000003 0.082843 -2.351310 -21.995933 -0.288738 -1.322952 -26.997352 -0.300403 -1.369538 -28.008864 -0.000001 0.000000 0.000006 0.221385 -4.570491 -10.408900 0.008027 -1.057181 -23.946350 -0.071644 -0.659333 -14.568877 -0.000001 0.000002 -0.000003 -1.219758 0.070773 3.002475 6.319347 0.323604 68.607461 0.059397 21.488356 -0.844749 3.748797 3.885285 1.529195 8.265307 7.734442 -18.880856 5.407315 -20.572685 9.835212 1.742522 -3.611588 0.678886 -0.000000 0.000000 -0.000000 0.244299 4.553666 10.124360 0.012427 1.048813 23.661526 -0.068166 0.630223 14.284930 -0.000000 -0.000001 -0.000001 0.154130 2.269842 20.136035 -0.249084 1.218950 25.142162 -0.245876 1.274645 26.153281 -0.000000 -0.000001 -0.000009 0.117813 2.161049 26.772993 -0.362248 1.496635 29.766333 -0.195044 1.394755 26.706624 -0.000000 -0.000000 -0.000003 0.544341 0.938172 29.277319 -0.089413 1.193281 22.608946 -0.539544 1.059281 21.708899 0.000001 -0.000003 0.000003 -14.327169 12.471383 16.905022 19.189546 2.093424 0.612170 -4.318262 7.374606 -13.456087 -3.053992 -2.417092 -2.398100 0.000000 -0.000001 -0.000000 -5.235533 -8.690030 -9.631945 16.922868 -3.635027 -0.591206 -11.692222 -2.353342 11.611713 -5.706660 2.177275 2.683997 -0.000000 0.000002 0.000000 
-0.287864 91.063538 3.702845 1.454306 -11.606402 -0.941539 7.840274 1.971505 0.408231 1.823696 4.083492 0.950790 -10.048380 3.685976 1.816250 4.852974 1.954128 -7.626886 6.020705 -0.708465 8.846576 0.000001 -0.000000 -0.000000 -1.061991 2.516205 -5.431039 3.268589 8.798511 -71.552891 8.215194 -17.518718 0.068765 1.318482 -0.809519 -10.536644 8.265292 -7.734430 18.880837 5.407339 20.572694 -9.835132 1.742520 3.611568 -0.678886 0.000002 -0.000000 -0.000005 0.517545 -1.011509 -30.486321 -0.133261 -1.259528 -23.818758 -0.562758 -1.123464 -22.920740 0.000000 0.000001 -0.000004 0.080340 -2.253318 -28.114394 -0.402501 -1.567711 -31.117894 -0.232979 -1.468955 -28.062044 -0.000000 -0.000001 0.000001 0.081545 -2.352962 -22.041072 -0.289660 -1.324962 -27.042483 -0.301543 -1.371185 -28.053974 0.000001 0.000000 0.000009 0.220815 -4.571723 -10.439638 0.007547 -1.058435 -23.977097 -0.071958 -0.660751 -14.599625 -0.000001 0.000003 0.000001 -1.224225 0.119953 3.042464 5.727140 1.012779 68.741530 -0.147422 20.997414 -1.158490 3.262171 3.762109 1.113869 8.265305 7.734441 -18.880852 5.407316 -20.572683 9.835203 1.742524 -3.611587 0.678882 -0.000000 -0.000001 -0.000001 0.245704 4.545625 9.910108 0.015769 1.041136 23.447261 -0.066148 0.622116 14.070769 -0.000000 -0.000001 -0.000001 0.157621 2.260055 19.870762 -0.244884 1.209638 24.876918 -0.241522 1.265387 25.888048 0.000003 0.000001 -0.000006 0.123094 2.150407 26.469039 -0.356530 1.483768 29.462462 -0.189771 1.383902 26.402738 -0.000000 0.000002 -0.000003 0.547412 0.932644 29.100055 -0.086913 1.185173 22.431724 -0.537654 1.054165 21.531663 0.000000 -0.000000 0.000002 -14.663670 12.389255 16.980028 19.661526 2.102662 0.588176 -4.561850 7.417400 -13.464051 -3.040464 -2.383831 -2.423270 0.000000 -0.000001 -0.000000 -5.661103 -8.616783 -9.645883 17.443408 -3.555531 -0.652843 -11.894762 -2.380771 11.631421 -5.713822 2.130426 2.666874 -0.000001 0.000001 0.000000 
-0.264012 90.933762 3.624215 1.553282 -11.647521 -0.918602 8.029251 1.946450 0.388004 1.950362 4.054995 0.919054 -9.921292 3.661029 1.777158 3.755726 2.012792 -7.657116 6.153597 -0.685156 8.824431 0.000000 0.000000 -0.000000 -1.094019 2.299468 -5.364702 3.043326 8.427710 -71.405366 7.561726 -17.601353 0.022888 1.666530 -1.041393 -10.766655 8.265294 -7.734432 18.880835 5.407341 20.572695 -9.835127 1.742521 3.611569 -0.678884 -0.000001 -0.000000 -0.000002 0.517189 -1.012460 -30.507296 -0.133831 -1.260407 -23.839722 -0.563207 -1.124229 -22.941740 0.000001 -0.000001 -0.000004 0.079693 -2.254764 -28.147870 -0.403299 -1.568944 -31.151345 -0.233833 -1.470210 -28.095461 0.000000 -0.000001 -0.000002 0.080570 -2.354109 -22.072707 -0.290349 -1.326425 -27.074030 -0.302355 -1.372331 -28.085589 0.000001 -0.000001 0.000001 0.220358 -4.572596 -10.461238 0.007228 -1.059311 -23.998609 -0.072180 -0.661777 -14.621150 -0.000001 0.000001 -0.000001 -1.226912 0.161739 3.113707 5.103534 1.604309 68.787887 -0.271970 20.512545 -1.351294 2.711862 3.590645 0.574054 8.265300 7.734438 -18.880851 5.407317 -20.572685 9.835211 1.742524 -3.611587 0.678885 0.000001 -0.000001 -0.000000 0.247581 4.534636 9.618241 0.020256 1.030621 23.155385 -0.063438 0.610969 13.778931 -0.000003 -0.000001 0.000001 0.162382 2.246631 19.509389 -0.239172 1.196904 24.515579 -0.235619 1.252732 25.526679 0.000001 0.000002 -0.000002 0.134940 2.135788 26.054892 -0.348785 1.464411 29.048627 -0.182614 1.369035 25.988786 0.000000 -0.000000 -0.000003 0.551590 0.925072 28.858540 -0.083529 1.172666 22.190361 -0.535018 1.047187 21.290116 0.000001 0.000004 0.000008 -14.990378 12.320573 17.026985 20.095308 2.150732 0.602144 -4.796543 7.434476 -13.483834 -3.096515 -2.416291 -2.408530 0.000000 0.000000 -0.000000 -6.059178 -8.548200 -9.688646 17.898792 -3.507817 -0.670304 -12.052671 -2.408192 11.644547 -5.716694 2.145869 2.665669 -0.000000 -0.000001 0.000000 
